<svg width="21" height="22" viewBox="0 0 21 22" fill="none" xmlns="http://www.w3.org/2000/svg">
<path d="M0.737291 21.0049C0.541988 21.0049 0.35642 20.9268 0.219708 20.79C0.0341692 20.6045 -0.0439035 20.3311 0.0244527 20.0772L1.25488 15.4778C0.4346 13.9544 0.00490285 12.2357 0.00490285 10.4975C0.00490285 4.70682 4.71172 0 10.5024 0C16.2932 0 21 4.70682 21 10.4975C21 16.2883 16.2932 20.9951 10.5024 20.9951C8.73493 20.9951 7.00657 20.5557 5.46367 19.7159L0.932605 20.9756C0.864248 20.9951 0.805648 21.0049 0.737291 21.0049ZM5.56129 18.2023C5.68824 18.2023 5.81519 18.2414 5.93238 18.3C7.30927 19.1105 8.89118 19.5401 10.5024 19.5401C15.4827 19.5401 19.5352 15.4875 19.5352 10.5073C19.5352 5.5271 15.4827 1.47455 10.5024 1.47455C5.52223 1.47455 1.46968 5.5271 1.46968 10.5073C1.46968 12.099 1.88957 13.6517 2.68055 15.0188C2.7782 15.1848 2.80752 15.3899 2.75869 15.5754L1.78218 19.2276L5.37575 18.2316C5.43434 18.212 5.5027 18.2023 5.56129 18.2023Z" fill="#10C64F"/>
<path d="M13.1782 16.1317C12.5727 16.1317 11.9478 15.9949 11.2935 15.7117C10.6783 15.4481 10.0631 15.0965 9.46741 14.6571C8.8815 14.2274 8.30542 13.7392 7.77811 13.2119C7.25079 12.6748 6.76248 12.1084 6.33281 11.5225C5.89338 10.9073 5.54183 10.3018 5.28794 9.70616C5.01451 9.06166 4.87781 8.42692 4.87781 7.82148C4.87781 7.39182 4.95591 6.98168 5.10239 6.60084C5.25863 6.20046 5.51253 5.83914 5.84455 5.52666C6.46952 4.91145 7.36796 4.68687 8.08082 5.02865C8.32495 5.13607 8.53001 5.31184 8.6863 5.54621L9.81896 7.13791C9.93614 7.29415 10.0241 7.46016 10.0925 7.62617C10.1706 7.82147 10.2194 8.0168 10.2194 8.20234C10.2194 8.45623 10.151 8.71012 10.0143 8.93471C9.92638 9.08119 9.79943 9.25697 9.63342 9.42297L9.50647 9.55969C9.56506 9.63781 9.63342 9.73546 9.74084 9.85264C9.94591 10.087 10.1705 10.3409 10.4146 10.585C10.6588 10.8194 10.9029 11.0538 11.147 11.2588C11.2642 11.3565 11.362 11.4346 11.4401 11.4834L11.5767 11.3467C11.7525 11.1709 11.9283 11.0342 12.1041 10.9463C12.4264 10.7413 12.9243 10.6924 13.3637 10.878C13.52 10.9366 13.6762 11.0245 13.8422 11.1416L15.4731 12.2939C15.6977 12.4502 15.8734 12.665 15.9906 12.9091C16.0882 13.1533 16.1274 13.3681 16.1274 13.5927C16.1274 13.8857 16.0589 14.1689 15.932 14.4423C15.805 14.6962 15.6585 14.9208 15.4828 15.1258C15.1703 15.4676 14.8091 15.7215 14.4185 15.8875C14.0278 16.0535 13.6078 16.1317 13.1782 16.1317ZM7.36792 6.34693C7.30933 6.34693 7.11407 6.34693 6.86994 6.59106C6.6844 6.76683 6.55743 6.95239 6.46954 7.15746C6.38166 7.36253 6.34258 7.5969 6.34258 7.83126C6.34258 8.2414 6.44023 8.68082 6.63553 9.14955C6.8406 9.63781 7.14335 10.1554 7.51443 10.6729C7.89527 11.1905 8.32494 11.708 8.80348 12.1865C9.28197 12.6552 9.78966 13.0947 10.317 13.4853C10.8248 13.8564 11.3424 14.1493 11.86 14.3739C12.6021 14.6962 13.2856 14.7743 13.8422 14.5399C14.0375 14.4618 14.2133 14.3251 14.3891 14.1493C14.4769 14.0517 14.5454 13.954 14.604 13.8271C14.6333 13.7587 14.6527 13.6806 14.6527 13.6122C14.6527 13.5927 14.6527 13.5634 14.6234 13.5048L12.9926 12.3721C12.9243 12.3232 12.8559 12.2842 12.7973 12.2646C12.7583 12.2842 12.6998 12.3135 12.5924 12.4209L12.2213 12.792C11.9381 13.0752 11.4889 13.1533 11.1276 13.0263L10.9518 12.9482C10.7272 12.831 10.4732 12.6552 10.19 12.4111C9.91661 12.1768 9.65305 11.9326 9.36986 11.6592C9.09643 11.376 8.8523 11.1123 8.61794 10.8389C8.364 10.5362 8.18822 10.2921 8.07104 10.087L7.96364 9.83311C7.93435 9.73546 7.92454 9.62804 7.92454 9.53039C7.92454 9.25697 8.02224 9.01284 8.20777 8.81753L8.57888 8.43669C8.6863 8.32927 8.72536 8.27069 8.74489 8.23163C8.71559 8.16328 8.67653 8.10467 8.62771 8.03632L7.4851 6.42507L7.36792 6.34693Z" fill="#10C64F"/>
</svg>
