<svg width="21" height="21" viewBox="0 0 21 21" fill="none" xmlns="http://www.w3.org/2000/svg">
<path d="M13.2187 20.6692H7.45054C2.23036 20.6692 0 18.4389 0 13.2187V7.45054C0 2.23036 2.23036 0 7.45054 0H13.2187C18.4389 0 20.6692 2.23036 20.6692 7.45054V13.2187C20.6692 18.4389 18.4389 20.6692 13.2187 20.6692ZM7.45054 1.44204C3.01867 1.44204 1.44204 3.01867 1.44204 7.45054V13.2187C1.44204 17.6506 3.01867 19.2272 7.45054 19.2272H13.2187C17.6506 19.2272 19.2272 17.6506 19.2272 13.2187V7.45054C19.2272 3.01867 17.6506 1.44204 13.2187 1.44204H7.45054Z" fill="#4827CC"/>
<path d="M10.3347 17.0162C10.104 17.0162 9.87325 16.9585 9.68098 16.8527C8.5658 16.2471 6.59504 15.5934 5.35489 15.4299L5.17223 15.4011C4.23009 15.2857 3.48022 14.4397 3.48022 13.4687V6.06626C3.48022 5.51829 3.71097 4.98954 4.10513 4.62422C4.5089 4.25891 5.02801 4.07626 5.5856 4.12433C6.98919 4.23969 9.02725 4.91264 10.229 5.6625L10.3251 5.72018L10.3636 5.69134C11.575 4.93187 13.6129 4.2493 15.0261 4.12433H15.1223C15.6222 4.07626 16.1605 4.26852 16.5547 4.62422C16.9585 4.98954 17.1796 5.49905 17.1796 6.05664V13.4495C17.1796 14.4109 16.4297 15.2569 15.478 15.3819L15.2761 15.4107C14.0456 15.5741 12.0652 16.2278 10.9692 16.8335C10.7865 16.9681 10.5654 17.0162 10.3347 17.0162ZM5.42219 5.57596C5.2876 5.57596 5.1722 5.62403 5.08568 5.70094C4.97993 5.79707 4.93189 5.93168 4.93189 6.07589V13.4784C4.93189 13.7091 5.1434 13.9494 5.36451 13.9783L5.54717 14.0071C6.95075 14.1994 9.10416 14.9012 10.3539 15.5837C11.5172 14.9108 13.6802 14.1898 15.0934 14.0071L15.3049 13.9783C15.526 13.9494 15.7375 13.7091 15.7375 13.4784V6.08547C15.7375 5.93165 15.6799 5.8067 15.5837 5.71056C15.478 5.61443 15.3434 5.57597 15.1896 5.58558C15.1703 5.58558 15.1127 5.58558 15.0934 5.58558C13.9783 5.68172 12.1421 6.29698 11.1422 6.93148L11.0461 6.98916C10.6231 7.24873 10.0271 7.24874 9.6233 6.99878L9.47909 6.91226C8.46966 6.27776 6.63349 5.6721 5.47024 5.57596C5.45101 5.57596 5.44142 5.57596 5.42219 5.57596Z" fill="#4827CC"/>
<path d="M10.3346 16.497C9.94045 16.497 9.61359 16.1702 9.61359 15.776V6.58541C9.61359 6.19126 9.94045 5.8644 10.3346 5.8644C10.7288 5.8644 11.0556 6.19126 11.0556 6.58541V15.776C11.0556 16.1798 10.7288 16.497 10.3346 16.497Z" fill="#4827CC"/>
</svg>
