<svg width="14" height="15" viewBox="0 0 14 15" fill="none" xmlns="http://www.w3.org/2000/svg">
<path d="M0.491527 14.2022C0.361325 14.2022 0.237613 14.1494 0.146472 14.0569C0.0227795 13.9315 -0.029269 13.7466 0.0163018 13.5749L0.836587 10.4651C0.289733 9.43508 0.00326858 8.273 0.00326858 7.09774C0.00326858 3.18245 3.14115 0 7.0016 0C10.8621 0 14 3.18245 14 7.09774C14 11.0131 10.8621 14.1956 7.0016 14.1956C5.82329 14.1956 4.67105 13.8985 3.64245 13.3306L0.621737 14.1824C0.576165 14.1956 0.537099 14.2022 0.491527 14.2022ZM3.70753 12.3072C3.79216 12.3072 3.87679 12.3337 3.95492 12.3733C4.87285 12.9213 5.92745 13.2118 7.0016 13.2118C10.3218 13.2118 13.0235 10.4717 13.0235 7.10437C13.0235 3.73707 10.3218 0.996997 7.0016 0.996997C3.68149 0.996997 0.979787 3.73707 0.979787 7.10437C0.979787 8.18057 1.25971 9.23041 1.78703 10.1548C1.85213 10.267 1.87168 10.4057 1.83913 10.5311L1.18812 13.0005L3.58383 12.327C3.62289 12.3138 3.66847 12.3072 3.70753 12.3072Z" fill="#10C64F"/>
<path d="M8.78549 10.9072C8.38182 10.9072 7.96522 10.8147 7.52902 10.6233C7.11889 10.445 6.70875 10.2073 6.31163 9.9102C5.92102 9.61966 5.53697 9.28957 5.18543 8.93305C4.83388 8.56989 4.50834 8.18693 4.22189 7.79078C3.92894 7.37482 3.69457 6.96542 3.52531 6.56269C3.34303 6.12692 3.25189 5.69775 3.25189 5.28839C3.25189 4.99788 3.30396 4.72057 3.40161 4.46307C3.50577 4.19236 3.67504 3.94806 3.89639 3.73678C4.31303 3.32081 4.91199 3.16897 5.38723 3.40006C5.54999 3.47269 5.68669 3.59153 5.79089 3.75L6.54599 4.8262C6.62411 4.93184 6.68275 5.04409 6.72835 5.15633C6.78042 5.28838 6.81295 5.42045 6.81295 5.5459C6.81295 5.71757 6.76735 5.88923 6.67622 6.04108C6.61761 6.14012 6.53297 6.25898 6.4223 6.37121L6.33767 6.46366C6.37673 6.51648 6.4223 6.5825 6.49391 6.66173C6.63063 6.82019 6.78035 6.99186 6.94309 7.15691C7.10589 7.31539 7.26862 7.47388 7.43135 7.61249C7.50949 7.67854 7.57469 7.73135 7.62675 7.76435L7.71782 7.67192C7.83502 7.55305 7.95222 7.46063 8.06942 7.40119C8.28429 7.26259 8.61622 7.22952 8.90915 7.35501C9.01335 7.39464 9.11749 7.45407 9.22815 7.53324L10.3154 8.31235C10.4652 8.41803 10.5823 8.56327 10.6604 8.72831C10.7255 8.89343 10.7516 9.03866 10.7516 9.19052C10.7516 9.38863 10.706 9.58011 10.6214 9.76497C10.5367 9.93664 10.439 10.0885 10.3219 10.2271C10.1136 10.4582 9.87275 10.6299 9.61235 10.7421C9.35189 10.8544 9.07189 10.9072 8.78549 10.9072ZM4.91197 4.29139C4.87291 4.29139 4.74273 4.29139 4.57998 4.45646C4.45629 4.5753 4.37164 4.70077 4.31305 4.83942C4.25446 4.97808 4.22841 5.13654 4.22841 5.295C4.22841 5.57231 4.29351 5.86942 4.42371 6.18635C4.56042 6.51648 4.76225 6.86644 5.00964 7.21634C5.26353 7.56631 5.54998 7.91621 5.86901 8.23974C6.188 8.55664 6.52646 8.8538 6.87802 9.1179C7.21655 9.36882 7.56162 9.56686 7.90669 9.71872C8.40142 9.93664 8.85709 9.98944 9.22815 9.83096C9.35835 9.77815 9.47555 9.68572 9.59275 9.56686C9.65129 9.50087 9.69695 9.43481 9.73602 9.34901C9.75555 9.30276 9.76849 9.24995 9.76849 9.2037C9.76849 9.19052 9.76849 9.17071 9.74895 9.13109L8.66175 8.36523C8.61622 8.33217 8.57062 8.3058 8.53155 8.29254C8.50555 8.3058 8.46655 8.32561 8.39495 8.39822L8.14755 8.64914C7.95875 8.84062 7.65929 8.89343 7.41842 8.80756L7.30122 8.75475C7.15149 8.67551 6.98215 8.55664 6.79335 8.3916C6.61109 8.23318 6.43539 8.06807 6.24659 7.88321C6.06431 7.69173 5.90155 7.51343 5.74531 7.32858C5.57602 7.12391 5.45883 6.95886 5.38071 6.82019L5.30911 6.64853C5.28959 6.5825 5.28305 6.50987 5.28305 6.44385C5.28305 6.25898 5.34818 6.09391 5.47187 5.96185L5.71927 5.70436C5.79089 5.63172 5.81693 5.59212 5.82995 5.56571C5.81041 5.51949 5.78437 5.47986 5.75183 5.43365L4.99009 4.34423L4.91197 4.29139Z" fill="#10C64F"/>
</svg>
