<svg width="13" height="14" viewBox="0 0 13 14" fill="none" xmlns="http://www.w3.org/2000/svg">
<path d="M6.37258 12.1933C3.51406 12.5085 0.92047 10.3495 0.593385 7.38251C0.2663 4.41557 2.32729 1.74343 5.18581 1.4283C8.04433 1.11317 10.6379 3.27217 10.965 6.23911C11.2921 9.20606 9.2311 11.8782 6.37258 12.1933ZM5.27265 2.21599C2.82899 2.48538 1.07325 4.76776 1.35228 7.29885C1.63132 9.82994 3.84209 11.675 6.28574 11.4056C8.7294 11.1362 10.4851 8.85387 10.2061 6.32278C9.92707 3.79168 7.7163 1.94659 5.27265 2.21599Z" fill="#818181"/>
<path d="M11.742 12.132C11.6459 12.1426 11.5457 12.1164 11.4611 12.046L10.3335 11.1073C10.17 10.9712 10.1422 10.7191 10.2721 10.5507C10.402 10.3822 10.6449 10.3554 10.8084 10.4916L11.936 11.4302C12.0996 11.5664 12.1273 11.8184 11.9974 11.9869C11.9302 12.074 11.8381 12.1214 11.742 12.132Z" fill="#818181"/>
</svg>
