<svg width="92" height="24" viewBox="0 0 92 24" fill="none" xmlns="http://www.w3.org/2000/svg">
<path d="M0 4C0 1.79086 1.79086 0 4 0H88C90.2091 0 92 1.79086 92 4V20C92 22.2091 90.2091 24 88 24H4C1.79086 24 0 22.2091 0 20V4Z" fill="#10C64F"/>
<path d="M34.223 16L32.206 8.72727H33.3601L34.777 14.3594H34.8445L36.3182 8.72727H37.4616L38.9354 14.3629H39.0028L40.4162 8.72727H41.5739L39.5533 16H38.4489L36.9183 10.5526H36.8615L35.331 16H34.223ZM43.551 12.7614V16H42.4892V8.72727H43.5368V11.4332H43.6042C43.7321 11.1397 43.9274 10.9065 44.1902 10.7337C44.4529 10.5608 44.7962 10.4744 45.22 10.4744C45.594 10.4744 45.9208 10.5514 46.2001 10.7053C46.4818 10.8591 46.6996 11.0888 46.8535 11.3942C47.0098 11.6972 47.0879 12.076 47.0879 12.5305V16H46.0261V12.6584C46.0261 12.2583 45.9231 11.9482 45.7172 11.728C45.5112 11.5054 45.2247 11.3942 44.8578 11.3942C44.6068 11.3942 44.3819 11.4474 44.1831 11.554C43.9866 11.6605 43.8315 11.8168 43.7179 12.0227C43.6066 12.2263 43.551 12.4725 43.551 12.7614ZM50.0922 16.1207C49.7465 16.1207 49.434 16.0568 49.1547 15.929C48.8753 15.7988 48.6539 15.6106 48.4906 15.3643C48.3296 15.1181 48.2491 14.8163 48.2491 14.4588C48.2491 14.151 48.3083 13.8977 48.4267 13.6989C48.545 13.5 48.7048 13.3426 48.9061 13.2266C49.1073 13.1106 49.3322 13.023 49.5808 12.9638C49.8294 12.9046 50.0827 12.8596 50.3407 12.8288C50.6674 12.791 50.9326 12.7602 51.1362 12.7365C51.3398 12.7105 51.4877 12.669 51.5801 12.6122C51.6724 12.5554 51.7186 12.4631 51.7186 12.3352V12.3104C51.7186 12.0002 51.631 11.7599 51.4558 11.5895C51.283 11.419 51.0249 11.3338 50.6816 11.3338C50.3242 11.3338 50.0424 11.4131 49.8365 11.5717C49.6329 11.728 49.492 11.902 49.4139 12.0938L48.416 11.8665C48.5344 11.535 48.7072 11.2675 48.9345 11.0639C49.1641 10.858 49.4281 10.7088 49.7264 10.6165C50.0247 10.5218 50.3384 10.4744 50.6674 10.4744C50.8852 10.4744 51.1161 10.5005 51.3599 10.5526C51.6061 10.6023 51.8358 10.6946 52.0488 10.8295C52.2643 10.9645 52.4406 11.1574 52.5779 11.4084C52.7153 11.657 52.7839 11.9801 52.7839 12.3778V16H51.747V15.2543H51.7044C51.6357 15.3916 51.5327 15.5265 51.3954 15.6591C51.2581 15.7917 51.0817 15.9018 50.8663 15.9893C50.6509 16.0769 50.3928 16.1207 50.0922 16.1207ZM50.323 15.2685C50.6165 15.2685 50.8675 15.2105 51.0758 15.0945C51.2865 14.9785 51.4463 14.8269 51.5552 14.6399C51.6665 14.4505 51.7221 14.2481 51.7221 14.0327V13.3295C51.6842 13.3674 51.6109 13.4029 51.502 13.4361C51.3954 13.4669 51.2735 13.4941 51.1362 13.5178C50.9989 13.5391 50.8651 13.5592 50.7349 13.5781C50.6047 13.5947 50.4958 13.6089 50.4082 13.6207C50.2022 13.6468 50.014 13.6906 49.8436 13.7521C49.6755 13.8137 49.5405 13.9025 49.4387 14.0185C49.3393 14.1321 49.2896 14.2836 49.2896 14.473C49.2896 14.7358 49.3867 14.9347 49.5808 15.0696C49.7749 15.2022 50.0223 15.2685 50.323 15.2685ZM56.7443 10.5455V11.3977H53.7649V10.5455H56.7443ZM54.5639 9.23864H55.6257V14.3984C55.6257 14.6044 55.6565 14.7595 55.718 14.8636C55.7796 14.9654 55.8589 15.0353 55.956 15.0732C56.0554 15.1087 56.1631 15.1264 56.2791 15.1264C56.3643 15.1264 56.4389 15.1205 56.5028 15.1087C56.5668 15.0968 56.6165 15.0874 56.652 15.0803L56.8438 15.9574C56.7822 15.9811 56.6946 16.0047 56.581 16.0284C56.4673 16.0545 56.3253 16.0687 56.1548 16.071C55.8755 16.0758 55.6151 16.026 55.3736 15.9219C55.1321 15.8177 54.9368 15.6567 54.7876 15.4389C54.6385 15.2211 54.5639 14.9477 54.5639 14.6186V9.23864ZM61.9183 11.8771L60.956 12.0476C60.9157 11.9245 60.8518 11.8073 60.7642 11.696C60.679 11.5848 60.563 11.4936 60.4162 11.4226C60.2694 11.3516 60.0859 11.3161 59.8658 11.3161C59.5651 11.3161 59.3142 11.3835 59.1129 11.5185C58.9117 11.651 58.8111 11.8227 58.8111 12.0334C58.8111 12.2157 58.8786 12.3625 59.0135 12.4737C59.1484 12.585 59.3662 12.6761 59.6669 12.7472L60.5334 12.946C61.0353 13.062 61.4093 13.2408 61.6555 13.4822C61.9018 13.7237 62.0249 14.0374 62.0249 14.4233C62.0249 14.75 61.9302 15.0412 61.7408 15.2969C61.5537 15.5502 61.2921 15.7491 60.956 15.8935C60.6222 16.0379 60.2351 16.1101 59.7947 16.1101C59.1839 16.1101 58.6856 15.9799 58.2997 15.7195C57.9138 15.4567 57.6771 15.0838 57.5895 14.6009L58.6158 14.4446C58.6797 14.7121 58.8111 14.9145 59.0099 15.0518C59.2088 15.1868 59.468 15.2543 59.7876 15.2543C60.1357 15.2543 60.4138 15.1821 60.6222 15.0376C60.8305 14.8909 60.9347 14.7121 60.9347 14.5014C60.9347 14.331 60.8707 14.1877 60.7429 14.0717C60.6174 13.9557 60.4245 13.8681 60.1641 13.8089L59.2408 13.6065C58.7318 13.4905 58.3554 13.3059 58.1115 13.0526C57.87 12.7992 57.7493 12.4785 57.7493 12.0902C57.7493 11.7682 57.8393 11.4865 58.0192 11.245C58.1991 11.0036 58.4477 10.8153 58.7649 10.6804C59.0821 10.5431 59.4455 10.4744 59.8551 10.4744C60.4446 10.4744 60.9086 10.6023 61.2472 10.858C61.5857 11.1113 61.8094 11.451 61.9183 11.8771ZM63.8919 16H62.7271L65.3443 8.72727H66.612L69.2292 16H68.0645L66.0083 10.0483H65.9515L63.8919 16ZM64.0872 13.152H67.8656V14.0753H64.0872V13.152ZM70.1942 18.0455V10.5455H71.2312V11.4297H71.32C71.3815 11.3161 71.4703 11.1847 71.5863 11.0355C71.7023 10.8864 71.8633 10.7562 72.0692 10.6449C72.2752 10.5312 72.5475 10.4744 72.886 10.4744C73.3263 10.4744 73.7193 10.5857 74.065 10.8082C74.4106 11.0308 74.6817 11.3516 74.8782 11.7706C75.0771 12.1896 75.1765 12.6939 75.1765 13.2834C75.1765 13.8729 75.0782 14.3783 74.8817 14.7997C74.6853 15.2187 74.4154 15.5419 74.0721 15.7692C73.7288 15.9941 73.337 16.1065 72.8967 16.1065C72.5652 16.1065 72.2942 16.0509 72.0835 15.9396C71.8751 15.8284 71.7118 15.6982 71.5934 15.549C71.475 15.3999 71.3839 15.2673 71.32 15.1513H71.256V18.0455H70.1942ZM71.2347 13.2727C71.2347 13.6562 71.2904 13.9924 71.4016 14.2812C71.5129 14.5701 71.6739 14.7962 71.8846 14.9595C72.0953 15.1205 72.3533 15.201 72.6587 15.201C72.976 15.201 73.2411 15.117 73.4542 14.9489C73.6673 14.7784 73.8282 14.5476 73.9371 14.2564C74.0484 13.9652 74.104 13.6373 74.104 13.2727C74.104 12.9129 74.0496 12.5897 73.9407 12.3033C73.8342 12.0168 73.6732 11.7907 73.4577 11.625C73.2447 11.4593 72.9783 11.3764 72.6587 11.3764C72.351 11.3764 72.0906 11.4557 71.8775 11.6143C71.6668 11.773 71.507 11.9943 71.3981 12.2784C71.2892 12.5625 71.2347 12.8939 71.2347 13.2727ZM76.3661 18.0455V10.5455H77.4031V11.4297H77.4918C77.5534 11.3161 77.6422 11.1847 77.7582 11.0355C77.8742 10.8864 78.0352 10.7562 78.2411 10.6449C78.4471 10.5312 78.7193 10.4744 79.0579 10.4744C79.4982 10.4744 79.8912 10.5857 80.2369 10.8082C80.5825 11.0308 80.8536 11.3516 81.0501 11.7706C81.2489 12.1896 81.3484 12.6939 81.3484 13.2834C81.3484 13.8729 81.2501 14.3783 81.0536 14.7997C80.8571 15.2187 80.5872 15.5419 80.244 15.7692C79.9007 15.9941 79.5089 16.1065 79.0685 16.1065C78.7371 16.1065 78.466 16.0509 78.2553 15.9396C78.047 15.8284 77.8836 15.6982 77.7653 15.549C77.6469 15.3999 77.5558 15.2673 77.4918 15.1513H77.4279V18.0455H76.3661ZM77.4066 13.2727C77.4066 13.6562 77.4622 13.9924 77.5735 14.2812C77.6848 14.5701 77.8458 14.7962 78.0565 14.9595C78.2672 15.1205 78.5252 15.201 78.8306 15.201C79.1478 15.201 79.413 15.117 79.6261 14.9489C79.8391 14.7784 80.0001 14.5476 80.109 14.2564C80.2203 13.9652 80.2759 13.6373 80.2759 13.2727C80.2759 12.9129 80.2215 12.5897 80.1126 12.3033C80.006 12.0168 79.8451 11.7907 79.6296 11.625C79.4165 11.4593 79.1502 11.3764 78.8306 11.3764C78.5228 11.3764 78.2624 11.4557 78.0494 11.6143C77.8387 11.773 77.6789 11.9943 77.57 12.2784C77.4611 12.5625 77.4066 12.8939 77.4066 13.2727Z" fill="white"/>
<path d="M11.5969 20.0049C11.4388 20.0049 11.2885 19.9416 11.1779 19.8309C11.0277 19.6807 10.9645 19.4594 11.0198 19.2538L12.0159 15.5303C11.3518 14.297 11.004 12.9057 11.004 11.4985C11.004 6.81049 14.8145 3 19.5024 3C24.1904 3 28.0009 6.81049 28.0009 11.4985C28.0009 16.1865 24.1904 19.997 19.5024 19.997C18.0715 19.997 16.6723 19.6412 15.4232 18.9613L11.755 19.9812C11.6997 19.997 11.6522 20.0049 11.5969 20.0049ZM15.5022 17.736C15.605 17.736 15.7078 17.7677 15.8027 17.8151C16.9173 18.4713 18.198 18.819 19.5024 18.819C23.5343 18.819 26.8151 15.5382 26.8151 11.5064C26.8151 7.47457 23.5343 4.19375 19.5024 4.19375C15.4706 4.19375 12.1898 7.47457 12.1898 11.5064C12.1898 12.795 12.5297 14.052 13.1701 15.1588C13.2491 15.2931 13.2729 15.4592 13.2333 15.6094L12.4428 18.5661L15.352 17.7597C15.3995 17.7439 15.4548 17.736 15.5022 17.736Z" fill="white"/>
<path d="M21.6686 16.0597C21.1785 16.0597 20.6725 15.949 20.1429 15.7197C19.6448 15.5063 19.1468 15.2217 18.6645 14.8659C18.1902 14.5181 17.7238 14.1228 17.2969 13.6959C16.87 13.2611 16.4747 12.8026 16.1268 12.3282C15.7711 11.8302 15.4865 11.3401 15.2809 10.8578C15.0596 10.336 14.9489 9.82218 14.9489 9.33204C14.9489 8.98419 15.0121 8.65216 15.1307 8.34384C15.2572 8.01971 15.4628 7.7272 15.7316 7.47422C16.2375 6.97617 16.9649 6.79435 17.542 7.07105C17.7396 7.15801 17.9056 7.30031 18.0321 7.49004L18.9491 8.77864C19.044 8.90513 19.1152 9.03952 19.1705 9.17392C19.2338 9.33203 19.2733 9.49016 19.2733 9.64036C19.2733 9.84591 19.2179 10.0514 19.1072 10.2333C19.0361 10.3519 18.9333 10.4942 18.7989 10.6286L18.6961 10.7392C18.7436 10.8025 18.7989 10.8815 18.8859 10.9764C19.0519 11.1661 19.2337 11.3717 19.4314 11.5693C19.629 11.759 19.8266 11.9488 20.0243 12.1148C20.1191 12.1939 20.1983 12.2571 20.2615 12.2966L20.3721 12.1859C20.5144 12.0436 20.6568 11.933 20.7991 11.8618C21.06 11.6958 21.4631 11.6563 21.8188 11.8065C21.9453 11.8539 22.0718 11.9251 22.2062 12.0199L23.5265 12.9528C23.7083 13.0793 23.8506 13.2532 23.9454 13.4508C24.0245 13.6485 24.0562 13.8224 24.0562 14.0042C24.0562 14.2414 24.0008 14.4707 23.898 14.692C23.7952 14.8976 23.6766 15.0794 23.5343 15.2454C23.2814 15.5221 22.9889 15.7276 22.6727 15.862C22.3565 15.9964 22.0165 16.0597 21.6686 16.0597ZM16.9648 8.13829C16.9174 8.13829 16.7593 8.13829 16.5617 8.33593C16.4115 8.47823 16.3087 8.62845 16.2375 8.79446C16.1664 8.96048 16.1348 9.15022 16.1348 9.33995C16.1348 9.67198 16.2138 10.0277 16.3719 10.4072C16.5379 10.8025 16.783 11.2215 17.0834 11.6405C17.3918 12.0595 17.7396 12.4785 18.127 12.8658C18.5144 13.2453 18.9254 13.601 19.3523 13.9173C19.7634 14.2177 20.1825 14.4548 20.6015 14.6367C21.2023 14.8976 21.7556 14.9608 22.2062 14.7711C22.3643 14.7078 22.5066 14.5972 22.6489 14.4548C22.7201 14.3758 22.7755 14.2967 22.8229 14.194C22.8466 14.1386 22.8624 14.0754 22.8624 14.02C22.8624 14.0042 22.8624 13.9805 22.8387 13.9331L21.5184 13.016C21.4631 12.9765 21.4077 12.9449 21.3603 12.9291C21.3287 12.9449 21.2813 12.9686 21.1944 13.0556L20.894 13.356C20.6647 13.5852 20.301 13.6485 20.0085 13.5457L19.8662 13.4825C19.6844 13.3876 19.4788 13.2453 19.2495 13.0477C19.0282 12.8579 18.8148 12.6603 18.5855 12.4389C18.3642 12.2097 18.1665 11.9962 17.9768 11.7749C17.7712 11.5298 17.6289 11.3321 17.5341 11.1661L17.4471 10.9606C17.4234 10.8815 17.4155 10.7946 17.4155 10.7155C17.4155 10.4942 17.4945 10.2965 17.6447 10.1384L17.9452 9.83009C18.0321 9.74313 18.0638 9.6957 18.0796 9.66408C18.0559 9.60874 18.0242 9.5613 17.9847 9.50596L17.0597 8.20155L16.9648 8.13829Z" fill="white"/>
</svg>
